<svg width="1045" height="118" viewBox="0 0 1045 118" fill="none" xmlns="http://www.w3.org/2000/svg">
<path d="M10.153 103.5V13.9H23.337V49.356H25.385C26.2383 47.7347 27.433 46.156 28.969 44.62C30.5903 43.084 32.681 41.8467 35.241 40.908C37.8863 39.884 41.2143 39.372 45.225 39.372C50.0037 39.372 54.2277 40.4387 57.897 42.572C61.6517 44.7053 64.5957 47.7347 66.729 51.66C68.8623 55.5 69.929 60.1507 69.929 65.612V103.5H56.745V66.636C56.745 61.1747 55.3797 57.164 52.649 54.604C49.9183 51.9587 46.1637 50.636 41.385 50.636C35.9237 50.636 31.529 52.428 28.201 56.012C24.9583 59.596 23.337 64.8013 23.337 71.628V103.5H10.153ZM111.431 105.292C105.031 105.292 99.4417 103.969 94.663 101.324C89.8843 98.5933 86.1297 94.796 83.399 89.932C80.7537 84.9827 79.431 79.2653 79.431 72.78V71.244C79.431 64.6733 80.7537 58.956 83.399 54.092C86.0443 49.1427 89.7137 45.3453 94.407 42.7C99.1857 39.9693 104.69 38.604 110.919 38.604C116.978 38.604 122.268 39.9693 126.791 42.7C131.399 45.3453 134.983 49.0573 137.543 53.836C140.103 58.6147 141.383 64.204 141.383 70.604V75.596H92.871C93.0417 81.1427 94.8763 85.58 98.375 88.908C101.959 92.1507 106.396 93.772 111.687 93.772C116.636 93.772 120.348 92.6627 122.823 90.444C125.383 88.2253 127.346 85.6653 128.711 82.764L139.591 88.396C138.396 90.7853 136.647 93.3027 134.343 95.948C132.124 98.5933 129.18 100.812 125.511 102.604C121.842 104.396 117.148 105.292 111.431 105.292ZM92.999 65.484H127.943C127.602 60.7053 125.895 56.9933 122.823 54.348C119.751 51.6173 115.74 50.252 110.791 50.252C105.842 50.252 101.788 51.6173 98.631 54.348C95.559 56.9933 93.6817 60.7053 92.999 65.484ZM150.853 103.5V13.9H164.037V103.5H150.853ZM177.203 103.5V13.9H190.387V103.5H177.203ZM233.121 105.292C226.806 105.292 221.174 104.012 216.225 101.452C211.361 98.8067 207.521 95.052 204.705 90.188C201.889 85.324 200.481 79.564 200.481 72.908V70.988C200.481 64.332 201.889 58.6147 204.705 53.836C207.521 48.972 211.361 45.2173 216.225 42.572C221.174 39.9267 226.806 38.604 233.121 38.604C239.436 38.604 245.068 39.9267 250.017 42.572C254.966 45.2173 258.849 48.972 261.665 53.836C264.481 58.6147 265.889 64.332 265.889 70.988V72.908C265.889 79.564 264.481 85.324 261.665 90.188C258.849 95.052 254.966 98.8067 250.017 101.452C245.068 104.012 239.436 105.292 233.121 105.292ZM233.121 93.516C238.924 93.516 243.617 91.6813 247.201 88.012C250.87 84.2573 252.705 79.0947 252.705 72.524V71.372C252.705 64.8013 250.913 59.6813 247.329 56.012C243.745 52.2573 239.009 50.38 233.121 50.38C227.404 50.38 222.71 52.2573 219.041 56.012C215.457 59.6813 213.665 64.8013 213.665 71.372V72.524C213.665 79.0947 215.457 84.2573 219.041 88.012C222.71 91.6813 227.404 93.516 233.121 93.516Z" fill="black"/>
<path d="M329.377 114.056C321.27 114.056 314.017 113.032 307.617 110.984C301.217 108.936 295.755 105.864 291.233 101.768C286.795 97.7573 283.382 92.7653 280.993 86.792C278.689 80.8187 277.536 73.9067 277.536 66.056C277.536 58.2053 278.689 51.2933 280.993 45.32C283.382 39.2613 286.795 34.2267 291.233 30.216C295.67 26.12 301.089 23.048 307.489 21C313.974 18.952 321.27 17.928 329.377 17.928C337.483 17.928 344.737 18.952 351.137 21C357.622 23.048 363.083 26.12 367.521 30.216C372.043 34.2267 375.499 39.2613 377.889 45.32C380.278 51.2933 381.473 58.2053 381.473 66.056C381.473 73.9067 380.278 80.8613 377.889 86.92C375.499 92.8933 372.043 97.8853 367.521 101.896C362.998 105.907 357.537 108.936 351.137 110.984C344.737 113.032 337.483 114.056 329.377 114.056ZM329.377 102.792C338.166 102.792 345.547 101.469 351.521 98.824C357.494 96.1787 362.017 92.1253 365.089 86.664C368.161 81.2027 369.697 74.3333 369.697 66.056C369.697 57.7787 368.161 50.9093 365.089 45.448C362.017 39.9867 357.494 35.8907 351.521 33.16C345.547 30.4293 338.166 29.064 329.377 29.064C320.587 29.064 313.206 30.4293 307.233 33.16C301.345 35.8907 296.865 39.9867 293.793 45.448C290.806 50.824 289.312 57.6933 289.312 66.056C289.312 74.3333 290.806 81.2027 293.793 86.664C296.865 92.1253 301.345 96.1787 307.233 98.824C313.206 101.469 320.587 102.792 329.377 102.792ZM324.513 83.208C326.475 83.208 328.395 82.8667 330.273 82.184C332.15 81.416 333.857 80.3067 335.393 78.856C337.014 77.4053 338.294 75.6133 339.233 73.48C340.257 71.2613 340.811 68.7013 340.896 65.8L341.025 63.24L343.969 61.832C343.115 63.1973 341.622 64.2213 339.489 64.904C337.355 65.5013 334.966 66.0133 332.321 66.44C329.761 66.8667 327.286 67.4213 324.897 68.104C322.507 68.7867 320.502 69.768 318.881 71.048C317.345 72.328 316.577 74.1627 316.577 76.552C316.577 78.6 317.259 80.2213 318.625 81.416C320.075 82.6107 322.038 83.208 324.513 83.208ZM320.033 93.448C317.131 93.448 314.358 92.9787 311.713 92.04C309.153 91.016 307.062 89.3947 305.441 87.176C303.819 84.9573 303.009 82.0987 303.009 78.6C303.009 75.3573 303.649 72.7547 304.929 70.792C306.294 68.744 308.086 67.1227 310.305 65.928C312.609 64.648 315.169 63.7093 317.985 63.112C320.801 62.4293 323.702 61.8747 326.689 61.448C330.443 60.8507 333.345 60.3387 335.393 59.912C337.526 59.4853 338.977 58.9307 339.745 58.248C340.598 57.5653 341.025 56.584 341.025 55.304C341.025 53.5973 340.598 52.1467 339.745 50.952C338.977 49.672 337.782 48.6907 336.161 48.008C334.625 47.24 332.747 46.856 330.529 46.856C328.566 46.856 326.561 47.24 324.513 48.008C322.55 48.6907 320.886 49.8 319.521 51.336C318.241 52.7867 317.558 54.792 317.473 57.352L305.312 56.2C305.483 52.5307 306.251 49.4587 307.617 46.984C309.067 44.424 310.945 42.376 313.249 40.84C315.638 39.304 318.283 38.1947 321.185 37.512C324.086 36.744 327.073 36.36 330.145 36.36C334.07 36.36 337.526 36.9147 340.513 38.024C343.499 39.1333 345.974 40.7547 347.937 42.888C349.985 44.936 351.521 47.496 352.545 50.568C353.569 53.64 354.081 57.1813 354.081 61.192V70.152C354.166 72.2853 354.209 74.4187 354.209 76.552C354.209 78.6 354.209 80.6053 354.209 82.568C354.294 84.5307 354.337 86.28 354.337 87.816C354.337 89.352 354.337 90.5893 354.337 91.528H342.305C342.39 88.5413 342.475 85.64 342.561 82.824C342.731 79.9227 342.859 76.8507 342.945 73.608H342.177C341.579 77.3627 340.299 80.776 338.337 83.848C336.459 86.8347 333.985 89.1813 330.913 90.888C327.841 92.5947 324.214 93.448 320.033 93.448Z" fill="black"/>
<path d="M415.437 105.292C410.914 105.292 406.861 104.524 403.277 102.988C399.778 101.452 396.962 99.1907 394.829 96.204C392.781 93.2173 391.757 89.5907 391.757 85.324C391.757 80.972 392.781 77.388 394.829 74.572C396.962 71.6707 399.821 69.4947 403.405 68.044C407.074 66.5933 411.213 65.868 415.821 65.868H435.021V61.772C435.021 58.1027 433.912 55.1587 431.693 52.94C429.474 50.7213 426.061 49.612 421.453 49.612C416.93 49.612 413.474 50.6787 411.085 52.812C408.696 54.9453 407.117 57.7187 406.349 61.132L394.061 57.164C395.085 53.7507 396.706 50.6787 398.925 47.948C401.229 45.132 404.258 42.8707 408.013 41.164C411.768 39.4573 416.29 38.604 421.581 38.604C429.773 38.604 436.216 40.6947 440.909 44.876C445.602 49.0573 447.949 54.988 447.949 62.668V88.652C447.949 91.212 449.144 92.492 451.533 92.492H456.909V103.5H447.053C444.066 103.5 441.634 102.732 439.757 101.196C437.88 99.66 436.941 97.5693 436.941 94.924V94.54H435.021C434.338 95.82 433.314 97.3133 431.949 99.02C430.584 100.727 428.578 102.22 425.933 103.5C423.288 104.695 419.789 105.292 415.437 105.292ZM417.357 94.412C422.648 94.412 426.914 92.9187 430.157 89.932C433.4 86.86 435.021 82.6787 435.021 77.388V76.108H416.589C413.09 76.108 410.274 76.876 408.141 78.412C406.008 79.8627 404.941 82.0387 404.941 84.94C404.941 87.8413 406.05 90.1453 408.269 91.852C410.488 93.5587 413.517 94.412 417.357 94.412ZM463.328 103.5V40.396H476.512V103.5H463.328ZM469.984 31.82C467.424 31.82 465.248 31.0093 463.456 29.388C461.749 27.6813 460.896 25.5053 460.896 22.86C460.896 20.2147 461.749 18.0813 463.456 16.46C465.248 14.7533 467.424 13.9 469.984 13.9C472.629 13.9 474.805 14.7533 476.512 16.46C478.219 18.0813 479.072 20.2147 479.072 22.86C479.072 25.5053 478.219 27.6813 476.512 29.388C474.805 31.0093 472.629 31.82 469.984 31.82ZM515.79 105.292C510.585 105.292 505.763 104.012 501.326 101.452C496.889 98.892 493.305 95.2227 490.574 90.444C487.929 85.58 486.606 79.7347 486.606 72.908V70.988C486.606 64.2467 487.929 58.444 490.574 53.58C493.219 48.716 496.761 45.004 501.198 42.444C505.635 39.884 510.499 38.604 515.79 38.604C519.886 38.604 523.299 39.116 526.03 40.14C528.846 41.164 531.15 42.4867 532.942 44.108C534.734 45.644 536.099 47.2653 537.038 48.972H539.086V13.9H552.27V103.5H539.342V94.54H537.294C535.673 97.2707 533.198 99.7453 529.87 101.964C526.627 104.183 521.934 105.292 515.79 105.292ZM519.502 93.772C525.219 93.772 529.913 91.9373 533.582 88.268C537.337 84.5987 539.214 79.3507 539.214 72.524V71.372C539.214 64.6307 537.379 59.4253 533.71 55.756C530.041 52.0867 525.305 50.252 519.502 50.252C513.87 50.252 509.177 52.0867 505.422 55.756C501.753 59.4253 499.918 64.6307 499.918 71.372V72.524C499.918 79.3507 501.753 84.5987 505.422 88.268C509.177 91.9373 513.87 93.772 519.502 93.772ZM565.278 103.5V40.396H578.206V47.82H580.254C581.278 45.1747 582.899 43.2547 585.118 42.06C587.422 40.78 590.238 40.14 593.566 40.14H601.118V52.044H593.054C588.787 52.044 585.289 53.2387 582.558 55.628C579.827 57.932 578.462 61.516 578.462 66.38V103.5H565.278ZM635.056 105.292C628.656 105.292 623.067 103.969 618.288 101.324C613.509 98.5933 609.755 94.796 607.024 89.932C604.379 84.9827 603.056 79.2653 603.056 72.78V71.244C603.056 64.6733 604.379 58.956 607.024 54.092C609.669 49.1427 613.339 45.3453 618.032 42.7C622.811 39.9693 628.315 38.604 634.544 38.604C640.603 38.604 645.893 39.9693 650.416 42.7C655.024 45.3453 658.608 49.0573 661.168 53.836C663.728 58.6147 665.008 64.204 665.008 70.604V75.596H616.496C616.667 81.1427 618.501 85.58 622 88.908C625.584 92.1507 630.021 93.772 635.312 93.772C640.261 93.772 643.973 92.6627 646.448 90.444C649.008 88.2253 650.971 85.6653 652.336 82.764L663.216 88.396C662.021 90.7853 660.272 93.3027 657.968 95.948C655.749 98.5933 652.805 100.812 649.136 102.604C645.467 104.396 640.773 105.292 635.056 105.292ZM616.624 65.484H651.568C651.227 60.7053 649.52 56.9933 646.448 54.348C643.376 51.6173 639.365 50.252 634.416 50.252C629.467 50.252 625.413 51.6173 622.256 54.348C619.184 56.9933 617.307 60.7053 616.624 65.484ZM681.539 105.292C678.552 105.292 676.035 104.311 673.987 102.348C672.024 100.385 671.043 97.868 671.043 94.796C671.043 91.724 672.024 89.2493 673.987 87.372C676.035 85.4093 678.552 84.428 681.539 84.428C684.526 84.428 687 85.4093 688.963 87.372C691.011 89.3347 692.035 91.8093 692.035 94.796C692.035 97.868 691.011 100.385 688.963 102.348C687 104.311 684.526 105.292 681.539 105.292ZM731.015 105.292C724.956 105.292 719.452 104.012 714.503 101.452C709.639 98.892 705.756 95.18 702.855 90.316C700.039 85.452 698.631 79.6067 698.631 72.78V71.116C698.631 64.2893 700.039 58.4867 702.855 53.708C705.756 48.844 709.639 45.132 714.503 42.572C719.452 39.9267 724.956 38.604 731.015 38.604C737.074 38.604 742.236 39.7133 746.503 41.932C750.77 44.1507 754.183 47.0947 756.743 50.764C759.388 54.4333 761.095 58.4867 761.863 62.924L749.063 65.612C748.636 62.796 747.74 60.236 746.375 57.932C745.01 55.628 743.09 53.7933 740.615 52.428C738.14 51.0627 735.026 50.38 731.271 50.38C727.602 50.38 724.274 51.2333 721.287 52.94C718.386 54.5613 716.082 56.9507 714.375 60.108C712.668 63.18 711.815 66.9347 711.815 71.372V72.524C711.815 76.9613 712.668 80.7587 714.375 83.916C716.082 87.0733 718.386 89.4627 721.287 91.084C724.274 92.7053 727.602 93.516 731.271 93.516C736.818 93.516 741.042 92.108 743.943 89.292C746.844 86.3907 748.679 82.7213 749.447 78.284L762.247 81.228C761.223 85.58 759.388 89.5907 756.743 93.26C754.183 96.9293 750.77 99.8733 746.503 102.092C742.236 104.225 737.074 105.292 731.015 105.292ZM800.621 105.292C794.306 105.292 788.674 104.012 783.725 101.452C778.861 98.8067 775.021 95.052 772.205 90.188C769.389 85.324 767.981 79.564 767.981 72.908V70.988C767.981 64.332 769.389 58.6147 772.205 53.836C775.021 48.972 778.861 45.2173 783.725 42.572C788.674 39.9267 794.306 38.604 800.621 38.604C806.936 38.604 812.568 39.9267 817.517 42.572C822.466 45.2173 826.349 48.972 829.165 53.836C831.981 58.6147 833.389 64.332 833.389 70.988V72.908C833.389 79.564 831.981 85.324 829.165 90.188C826.349 95.052 822.466 98.8067 817.517 101.452C812.568 104.012 806.936 105.292 800.621 105.292ZM800.621 93.516C806.424 93.516 811.117 91.6813 814.701 88.012C818.37 84.2573 820.205 79.0947 820.205 72.524V71.372C820.205 64.8013 818.413 59.6813 814.829 56.012C811.245 52.2573 806.509 50.38 800.621 50.38C794.904 50.38 790.21 52.2573 786.541 56.012C782.957 59.6813 781.165 64.8013 781.165 71.372V72.524C781.165 79.0947 782.957 84.2573 786.541 88.012C790.21 91.6813 794.904 93.516 800.621 93.516ZM869.515 105.292C864.31 105.292 859.488 104.012 855.051 101.452C850.614 98.892 847.03 95.2227 844.299 90.444C841.654 85.58 840.331 79.7347 840.331 72.908V70.988C840.331 64.2467 841.654 58.444 844.299 53.58C846.944 48.716 850.486 45.004 854.923 42.444C859.36 39.884 864.224 38.604 869.515 38.604C873.611 38.604 877.024 39.116 879.755 40.14C882.571 41.164 884.875 42.4867 886.667 44.108C888.459 45.644 889.824 47.2653 890.763 48.972H892.811V13.9H905.995V103.5H893.067V94.54H891.019C889.398 97.2707 886.923 99.7453 883.595 101.964C880.352 104.183 875.659 105.292 869.515 105.292ZM873.227 93.772C878.944 93.772 883.638 91.9373 887.307 88.268C891.062 84.5987 892.939 79.3507 892.939 72.524V71.372C892.939 64.6307 891.104 59.4253 887.435 55.756C883.766 52.0867 879.03 50.252 873.227 50.252C867.595 50.252 862.902 52.0867 859.147 55.756C855.478 59.4253 853.643 64.6307 853.643 71.372V72.524C853.643 79.3507 855.478 84.5987 859.147 88.268C862.902 91.9373 867.595 93.772 873.227 93.772ZM947.931 105.292C941.531 105.292 935.942 103.969 931.163 101.324C926.384 98.5933 922.63 94.796 919.899 89.932C917.254 84.9827 915.931 79.2653 915.931 72.78V71.244C915.931 64.6733 917.254 58.956 919.899 54.092C922.544 49.1427 926.214 45.3453 930.907 42.7C935.686 39.9693 941.19 38.604 947.419 38.604C953.478 38.604 958.768 39.9693 963.291 42.7C967.899 45.3453 971.483 49.0573 974.043 53.836C976.603 58.6147 977.883 64.204 977.883 70.604V75.596H929.371C929.542 81.1427 931.376 85.58 934.875 88.908C938.459 92.1507 942.896 93.772 948.187 93.772C953.136 93.772 956.848 92.6627 959.323 90.444C961.883 88.2253 963.846 85.6653 965.211 82.764L976.091 88.396C974.896 90.7853 973.147 93.3027 970.843 95.948C968.624 98.5933 965.68 100.812 962.011 102.604C958.342 104.396 953.648 105.292 947.931 105.292ZM929.499 65.484H964.443C964.102 60.7053 962.395 56.9933 959.323 54.348C956.251 51.6173 952.24 50.252 947.291 50.252C942.342 50.252 938.288 51.6173 935.131 54.348C932.059 56.9933 930.182 60.7053 929.499 65.484ZM1013.21 105.292C1005.19 105.292 998.532 103.5 993.241 99.916C987.95 96.332 984.708 90.9133 983.513 83.66L995.801 80.716C996.484 84.2147 997.636 86.988 999.257 89.036C1000.88 91.084 1002.88 92.5347 1005.27 93.388C1007.75 94.2413 1010.39 94.668 1013.21 94.668C1017.39 94.668 1020.59 93.8573 1022.81 92.236C1025.11 90.6147 1026.27 88.524 1026.27 85.964C1026.27 83.404 1025.2 81.5267 1023.07 80.332C1020.93 79.1373 1017.77 78.156 1013.59 77.388L1009.24 76.62C1004.97 75.852 1001.09 74.7427 997.593 73.292C994.094 71.8413 991.321 69.836 989.273 67.276C987.225 64.716 986.201 61.4307 986.201 57.42C986.201 51.4467 988.42 46.8387 992.857 43.596C997.294 40.268 1003.18 38.604 1010.52 38.604C1017.6 38.604 1023.41 40.2253 1027.93 43.468C1032.54 46.6253 1035.52 50.9347 1036.89 56.396L1024.6 59.852C1023.83 56.012 1022.21 53.324 1019.74 51.788C1017.26 50.1667 1014.19 49.356 1010.52 49.356C1006.94 49.356 1004.12 50.0387 1002.07 51.404C1000.03 52.684 999.001 54.5187 999.001 56.908C999.001 59.468 999.982 61.3453 1001.95 62.54C1003.99 63.7347 1006.72 64.6307 1010.14 65.228L1014.62 65.996C1019.14 66.764 1023.28 67.8307 1027.03 69.196C1030.79 70.5613 1033.73 72.524 1035.87 75.084C1038.08 77.644 1039.19 81.0573 1039.19 85.324C1039.19 91.6387 1036.85 96.5453 1032.15 100.044C1027.46 103.543 1021.15 105.292 1013.21 105.292Z" fill="black"/>
</svg>
